<svg width="326" height="357" viewBox="0 0 326 357" fill="none" xmlns="http://www.w3.org/2000/svg">
<g clip-path="url(#clip0_88_22)">
<path d="M145.152 180.078V87.6956H97.1414V180.078H83.9697V356.366H132.903V237.548H163V180.078H145.152Z" fill="#F29629"/>
<path d="M228.859 180.078V87.6956H180.848V180.078H163V237.548H193.097V356.366H242.03V180.078H228.859Z" fill="#18688B"/>
<path d="M255.202 87.6956V180.078H242.03V356.366H290.963V237.548H303.213V87.6956H255.202Z" fill="#0D2E4A"/>
<path d="M70.798 180.078V87.6956H22.7871V237.548H35.0368V356.366H83.9697V180.078H70.798Z" fill="#F2AF29"/>
<path d="M255.202 87.6956H228.858V180.006H255.202V87.6956Z" fill="#F2AF29"/>
<path d="M242.031 80.5119V0.772888C221.878 0.772888 205.479 18.6603 205.479 40.6424C205.479 62.6245 221.878 80.5119 242.031 80.5119Z" fill="#18688B"/>
<path d="M97.1413 87.6956H70.7979V180.006H97.1413V87.6956Z" fill="#AD343E"/>
<path d="M83.97 80.5119V0.772888C63.8172 0.772888 47.4185 18.6603 47.4185 40.6424C47.4185 62.6245 63.8172 80.5119 83.97 80.5119Z" fill="#F2AF29"/>
<path d="M278.582 40.6424C278.582 18.6603 262.183 0.772888 242.03 0.772888V80.5119C262.183 80.5119 278.582 62.6245 278.582 40.6424Z" fill="#0D2E4A"/>
<path d="M120.521 40.6424C120.521 18.6603 104.122 0.772888 83.9697 0.772888V80.5119C104.122 80.5119 120.521 62.6245 120.521 40.6424Z" fill="#F29629"/>
</g>
<defs>
<clipPath id="clip0_88_22">
<rect width="326" height="355.593" fill="white" transform="translate(0 0.772888)"/>
</clipPath>
</defs>
</svg>
